# Blender v3.2.1 OBJ File: 'cube.blend'
# www.blender.org
mtllib mcube.mtl
o Cube
v 1.000000 1.000000 -1.000000
v 1.000000 -1.000000 -1.000000
v 1.000000 1.000000 1.000000
v 1.000000 -1.000000 1.000000
v -1.000000 1.000000 -1.000000
v -1.000000 -1.000000 -1.000000
v -1.000000 1.000000 1.000000
v -1.000000 -1.000000 1.000000
vt 0.616647 0.508121
vt 0.863858 0.508121
vt 0.863858 0.738238
vt 0.616647 0.738238
vt 0.384394 0.738238
vt 0.616647 0.981733
vt 0.384394 0.981733
vt 0.384394 0.034510
vt 0.616647 0.034510
vt 0.616647 0.271316
vt 0.384394 0.271316
vt 0.141203 0.508121
vt 0.384394 0.508121
vt 0.141203 0.738238
vn 0.0000 1.0000 0.0000
vn 0.0000 0.0000 1.0000
vn -1.0000 0.0000 0.0000
vn 0.0000 -1.0000 0.0000
vn 1.0000 0.0000 0.0000
vn 0.0000 0.0000 -1.0000
usemtl Material
s off
f 1/1/1 5/2/1 7/3/1 3/4/1
f 4/5/2 3/4/2 7/6/2 8/7/2
f 8/8/3 7/9/3 5/10/3 6/11/3
f 6/12/4 2/13/4 4/5/4 8/14/4
f 2/13/5 1/1/5 3/4/5 4/5/5
f 6/11/6 5/10/6 1/1/6 2/13/6
